<?xml version="1.0" encoding="utf-8"?>
<!-- Generator: Adobe Illustrator 26.0.3, SVG Export Plug-In . SVG Version: 6.00 Build 0)  -->
<svg version="1.1" id="Layer_1" xmlns="http://www.w3.org/2000/svg" xmlns:xlink="http://www.w3.org/1999/xlink" x="0px" y="0px"
	 viewBox="0 0 180 180" style="enable-background:new 0 0 180 180;" xml:space="preserve">
<style type="text/css">
	.st0{fill:url(#SVGID_1_);}
	.st1{fill:#FFFFFF;}
</style>
<linearGradient id="SVGID_1_" gradientUnits="userSpaceOnUse" x1="3.8" y1="90" x2="176.1006" y2="90">
	<stop  offset="0" style="stop-color:#BB0FF0"/>
	<stop  offset="1" style="stop-color:#570077"/>
</linearGradient>
<path class="st0" d="M150.7,176.2H29.3c-14.1,0-25.5-11.4-25.5-25.5V29.3c0-14.1,11.4-25.5,25.5-25.5h121.3
	c14.1,0,25.5,11.4,25.5,25.5v121.3C176.2,164.7,164.7,176.2,150.7,176.2z"/>
<g>
	<path class="st1" d="M144.2,93.5c7-8.4,10.6-19,10.6-30.6c0-7.2-1.1-13.4-3.1-19.2l-31.2,15.9c0,0.8,0,1.7,0,2.5
		c0,5.6-1.4,10.6-3.6,14.8c-2.8,4.2-7,7.8-13.4,9.8c-3.6,1.4-7.8,2.2-12.5,2.8c-0.8,0-1.4,0-2.8,0s-1.4,1.4-0.8,2.2l61.8,78.2h4.2
		L113,113v-0.8C126.9,108.3,137.2,101.9,144.2,93.5z"/>
	<path class="st1" d="M96.8,38.1c5,0.8,8.4,1.4,11.1,2.8c5,2.2,8.4,5,9.8,8.4c1.4,2.5,2.2,5,2.5,8.1l30.6-15.6
		c-1.1-3.1-2.8-5.8-4.7-8.4c-5.6-7.8-13.4-13.4-23.7-17.6c-5.6-2.2-12-3.6-19.5-4.2c-8.4-1.4-16.7-1.4-25.1-1.4H26.6
		c-0.8,0-1.4,0-1.4,1.4v0.8l25.9,32.9c1.4,3.6,4.2,6.4,8.4,6.4c5,0,8.4-4.2,8.4-8.4c0-2.2-0.8-4.2-2.2-5.6h13.9
		C86.5,37.2,92.1,37.2,96.8,38.1z"/>
</g>
</svg>
