<?xml version="1.0" encoding="utf-8"?>
<!-- Generator: Adobe Illustrator 26.0.3, SVG Export Plug-In . SVG Version: 6.00 Build 0)  -->
<svg version="1.1" id="Layer_1" xmlns="http://www.w3.org/2000/svg" xmlns:xlink="http://www.w3.org/1999/xlink" x="0px" y="0px"
	 viewBox="0 0 360 90" style="enable-background:new 0 0 360 90;" xml:space="preserve">
<style type="text/css">
	.st0{fill:#FFFFFF;}
</style>
<g>
	
		<image style="overflow:visible;opacity:0.25;" width="278" height="92" xlink:href="2E506CB3.png"  transform="matrix(1 0 0 1 43 1)">
	</image>
	<g>
		<g>
			<g>
				<path class="st0" d="M101.3,42.4c3.1-3.8,4.8-8.5,4.8-13.8c0-3.3-0.5-6-1.4-8.6l-14,7.1c0,0.4,0,0.8,0,1.1
					c0,2.5-0.6,4.8-1.6,6.6c-1.3,1.9-3.1,3.5-6,4.4c-1.6,0.6-3.5,1-5.6,1.3c-0.4,0-0.6,0-1.3,0s-0.6,0.6-0.4,1l27.8,35.2h1.9
					L87.3,51.2v-0.4C93.6,49.1,98.2,46.2,101.3,42.4z"/>
				<path class="st0" d="M80,17.5c2.3,0.4,3.8,0.6,5,1.3c2.3,1,3.8,2.3,4.4,3.8c0.6,1.1,1,2.3,1.1,3.6l13.8-7
					c-0.5-1.4-1.3-2.6-2.1-3.8c-2.5-3.5-6-6-10.6-7.9c-2.5-1-5.4-1.6-8.8-1.9C79,5,75.3,5,71.5,5h-23c-0.4,0-0.6,0-0.6,0.6V6
					l11.6,14.8c0.6,1.6,1.9,2.9,3.8,2.9c2.3,0,3.8-1.9,3.8-3.8c0-1-0.4-1.9-1-2.5h6.3C75.4,17.1,77.9,17.1,80,17.5z"/>
			</g>
			<g>
				<g>
					<path class="st0" d="M310.6,66.7c-0.9-1-1.9-1.6-3.1-2.1c-1.1-0.5-2.8-0.9-4.5-1.3c-1.6-0.4-2.9-0.8-3.5-1
						c-0.8-0.4-1-0.9-1-1.4c0-0.5,0.4-1.1,1-1.5s1.5-0.6,3-0.6c2.1,0,4.4,0.6,6.6,1.9l2.1-5c-1.1-0.8-2.5-1.1-4-1.5
						c-1.5-0.4-3.1-0.5-4.6-0.5c-2.3,0-4.3,0.4-5.8,1c-1.5,0.8-2.8,1.6-3.5,2.8c-0.9,1.1-1.1,2.5-1.1,3.9c0,1.6,0.5,3,1.3,3.9
						c0.9,1,1.9,1.6,3.1,2.1c1.1,0.5,2.8,0.9,4.5,1.3c1.6,0.4,2.9,0.8,3.5,1c0.6,0.3,1,0.9,1,1.5c0,1.3-1.3,1.9-3.9,1.9
						c-1.4,0-2.8-0.3-4.1-0.6c-1.4-0.5-2.6-1-3.6-1.6l-2.3,5c1.1,0.9,2.6,1.4,4.4,1.9c1.8,0.5,3.6,0.8,5.6,0.8c2.3,0,4.3-0.4,5.8-1
						c1.5-0.8,2.9-1.6,3.5-2.8c0.9-1.1,1.1-2.5,1.1-3.9C311.9,69,311.6,67.7,310.6,66.7z"/>
				</g>
				<g>
					<polygon class="st0" points="276.8,68.3 287.5,68.3 287.5,63.3 276.8,63.3 276.8,59.3 288.9,59.3 288.9,54 270.2,54 
						270.2,77.9 289.4,77.9 289.4,72.7 276.8,72.7 					"/>
				</g>
				<g>
					<polygon class="st0" points="256.2,54 249.4,54 249.4,77.9 267.4,77.9 267.4,72.6 256.2,72.6 					"/>
				</g>
				<g>
					<path class="st0" d="M230.4,54l-10.5,23.9h6.9l1.9-4.6h10l1.9,4.6h7L237,54C237,54,230.4,54,230.4,54z M230.5,68.3l3.1-7.6
						l3.1,7.6H230.5z"/>
				</g>
				<g>
					<polygon class="st0" points="219.1,58.2 219.1,54 198.7,54 198.7,59.5 210.4,59.5 198.3,73.6 198.3,77.9 219.7,77.9 
						219.7,72.6 207.2,72.6 					"/>
				</g>
				<g>
					<path class="st0" d="M162.2,55.2c-2-1-4.3-1.6-6.8-1.6s-4.8,0.6-6.8,1.6s-3.5,2.6-4.8,4.4c-1.1,1.9-1.8,4-1.8,6.4
						c0,2.4,0.6,4.5,1.8,6.4c1.1,1.9,2.8,3.3,4.8,4.4c2,1,4.3,1.6,6.8,1.6s4.8-0.6,6.8-1.6s3.5-2.5,4.8-4.4c1.3-1.9,1.8-4,1.8-6.4
						c0-2.4-0.6-4.5-1.8-6.4C165.7,57.7,164.2,56.2,162.2,55.2z M160.9,69.5c-0.6,1-1.3,1.9-2.4,2.4c-1,0.6-2,0.9-3.3,0.9
						c-1.1,0-2.3-0.3-3.3-0.9c-1-0.6-1.8-1.4-2.4-2.4c-0.6-1-0.9-2.3-0.9-3.5c0-1.3,0.3-2.5,0.9-3.5s1.3-1.8,2.4-2.4
						c1-0.6,2-0.9,3.3-0.9c1.1,0,2.3,0.3,3.3,0.9c1,0.6,1.8,1.4,2.4,2.4c0.6,1,0.9,2.3,0.9,3.5C161.8,67.3,161.4,68.6,160.9,69.5z"
						/>
				</g>
				<g>
					<path class="st0" d="M129.5,59.2c2.3,0,4.1,0.9,5.8,2.6l4.3-3.9c-1.1-1.4-2.6-2.5-4.4-3.1c-1.8-0.8-3.8-1.1-6-1.1
						c-2.6,0-4.9,0.5-6.9,1.5s-3.5,2.5-4.8,4.4c-1.1,1.9-1.6,4-1.6,6.4s0.6,4.5,1.6,6.4c1.1,1.9,2.8,3.3,4.8,4.4
						c2,1,4.3,1.5,6.8,1.5c1.8,0,3.5-0.3,5.3-0.9c1.8-0.5,3.3-1.3,4.8-2.3v-9.9h-5.9v6.9c-1.1,0.5-2.4,0.9-3.6,0.9s-2.5-0.3-3.5-0.9
						c-1-0.6-1.8-1.4-2.4-2.4c-0.6-1-0.9-2.3-0.9-3.5c0-2,0.6-3.6,1.9-5C125.7,59.8,127.4,59.2,129.5,59.2z"/>
				</g>
				<g>
					<path class="st0" d="M248.9,29.2c-1.1-1.9-2.8-3.3-4.8-4.4c-2-1-4.3-1.6-6.8-1.6s-4.8,0.6-6.8,1.6c-2,1-3.5,2.6-4.8,4.4
						c-1.1,1.9-1.8,4-1.8,6.4c0,2.4,0.6,4.5,1.8,6.4c1.1,1.9,2.8,3.3,4.8,4.4c2,1.1,4.3,1.6,6.8,1.6s4.8-0.6,6.8-1.6
						s3.5-2.5,4.8-4.4c1.1-1.9,1.8-4,1.8-6.4S250.2,31,248.9,29.2z M243,39.1c-0.6,1-1.3,1.9-2.4,2.4c-1,0.6-2,0.9-3.3,0.9
						c-1.1,0-2.3-0.3-3.3-0.9c-1-0.6-1.8-1.4-2.4-2.4s-0.9-2.3-0.9-3.5s0.3-2.5,0.9-3.5c0.6-1,1.3-1.8,2.4-2.4c1-0.6,2-0.9,3.3-0.9
						c1.1,0,2.3,0.3,3.3,0.9c1,0.6,1.8,1.4,2.4,2.4c0.6,1,0.9,2.3,0.9,3.5C243.9,36.9,243.7,38.1,243,39.1z"/>
				</g>
				<g>
					<path class="st0" d="M215.5,46.1c2-1,3.5-2.4,4.8-4.1c1-1.8,1.6-3.9,1.6-6.3c0-2.4-0.6-4.5-1.6-6.3c-1-1.8-2.8-3.1-4.8-4.1
						c-2-1-4.3-1.6-6.9-1.6h-11.3v23.8h11.3C211.2,47.4,213.5,46.9,215.5,46.1z M204,42.1V29h4.3c2,0,3.6,0.6,5,1.8
						c1.1,1.1,1.9,2.8,1.9,4.9c0,2-0.6,3.6-1.9,4.9c-1.1,1.1-2.9,1.8-5,1.8H204V42.1z"/>
				</g>
				<g>
					<path class="st0" d="M153,23.5l-10.5,23.9h6.9l1.9-4.6h10l1.9,4.6h7l-10.5-23.9H153z M153.1,37.8l3.1-7.6l3.1,7.6H153.1z"/>
				</g>
				<g>
					<path class="st0" d="M138.5,39.6c-1.5,1.9-3.4,2.9-5.6,2.9c-1.3,0-2.5-0.3-3.4-0.9c-1-0.6-1.8-1.4-2.4-2.4s-0.9-2.3-0.9-3.5
						s0.3-2.5,0.9-3.5c0.6-1,1.3-1.8,2.4-2.4c1-0.6,2.1-0.9,3.4-0.9c2.3,0,4,1,5.6,2.9l4.3-3.9c-1.1-1.4-2.6-2.6-4.4-3.3
						c-1.8-0.9-3.6-1.1-5.9-1.1c-2.5,0-4.8,0.5-6.8,1.5s-3.5,2.5-4.8,4.4c-1.1,1.9-1.6,4-1.6,6.4s0.6,4.5,1.6,6.4
						c1.1,1.9,2.8,3.3,4.8,4.4s4.3,1.5,6.8,1.5c2.1,0,4.1-0.4,5.9-1.1c1.8-0.8,3.1-1.9,4.4-3.3L138.5,39.6z"/>
				</g>
				<g>
					<rect x="109.1" y="23.5" class="st0" width="6.8" height="23.9"/>
				</g>
			</g>
			<g>
				<path class="st0" d="M178.8,56.8l-0.1,8.5c0,0.3,0.1,0.5,0.3,0.6l8.4,10.1c0.3,0.3,0.6,0.1,0.6-0.3l0.3-8.5c0-0.1,0-0.1-0.1-0.3
					l-8.8-10.5C179.2,56.3,178.8,56.5,178.8,56.8z"/>
				<path class="st0" d="M180.2,40.8l-2.8-3.6l-3.6-5.3c0-0.1,0.1-0.3,0.1-0.4c0-0.6-0.5-1-1-1c-0.6,0-1,0.5-1,1
					c0,0.4,0.1,0.6,0.4,0.9v52.1c0,0.3,0.3,0.5,0.5,0.5h4.4c0.3,0,0.5-0.3,0.5-0.5V42.2c0-0.3,0.3-0.5,0.5-0.5h1.8
					C180.2,41.7,180.4,41.2,180.2,40.8z"/>
				<path class="st0" d="M194.8,54.6h-4.8v23c0,0.1,0.1,0.4,0.4,0.4h4.1c0.1,0,0.4-0.1,0.4-0.4L194.8,54.6L194.8,54.6z"/>
				<path class="st0" d="M194.5,51.3l-7.5-10.4v-0.1c2.4-0.8,4.1-1.8,5.3-3.1c1.1-1.4,1.8-3.1,1.8-5.3c0-2-0.5-3.6-1.4-5
					c-1-1.3-2.3-2.3-4-3c-1-0.4-2-0.6-3.3-0.8c-1.4-0.3-2.9-0.3-4.3-0.3h-8.8c-0.1,0-0.3,0-0.3,0.3v0.1l4.4,5.5c0.3,0.6,0.8,1,1.4,1
					c0.9,0,1.4-0.8,1.4-1.4c0-0.4-0.1-0.8-0.4-1h2.4c1.1,0,2.1,0,3,0.1s1.4,0.3,1.9,0.5c0.9,0.4,1.4,0.9,1.6,1.4
					c0.4,0.6,0.5,1.3,0.5,2.1c0,1-0.3,1.8-0.6,2.5c-0.5,0.8-1.1,1.3-2.3,1.6c-0.6,0.3-1.3,0.4-2.1,0.5c-0.1,0-0.3,0-0.5,0
					s-0.3,0.3-0.1,0.4l11.3,14.4L194.5,51.3z"/>
			</g>
		</g>
	</g>
</g>
</svg>
